STARTFONT 2.1
FONT -FontForge-Bitstream Vera Sans-Book-R-Normal-Sans--24-240-75-75-P-143-ISO10646-1
SIZE 24 75 75
FONTBOUNDINGBOX 34 29 -4 -6
COMMENT "Generated by fontforge, http://fontforge.sourceforge.net"
COMMENT "Copyright (c) 2003 by Bitstream, Inc. All Rights Reserved."
STARTPROPERTIES 40
FOUNDRY "FontForge"
FAMILY_NAME "Bitstream Vera Sans"
WEIGHT_NAME "Book"
SLANT "R"
SETWIDTH_NAME "Normal"
ADD_STYLE_NAME "Sans"
PIXEL_SIZE 24
POINT_SIZE 240
RESOLUTION_X 75
RESOLUTION_Y 75
SPACING "P"
AVERAGE_WIDTH 143
CHARSET_REGISTRY "ISO10646"
CHARSET_ENCODING "1"
FONTNAME_REGISTRY ""
CHARSET_COLLECTIONS "ISO8859-9 ISO10646-1"
FONT_NAME "BitstreamVeraSans-Roman"
FACE_NAME "Bitstream Vera Sans"
COPYRIGHT "Copyright (c) 2003 by Bitstream, Inc. All Rights Reserved."
FONT_VERSION "Release 1.10"
FONT_ASCENT 18
FONT_DESCENT 6
UNDERLINE_POSITION -3
UNDERLINE_THICKNESS 2
X_HEIGHT 12
CAP_HEIGHT 17
RAW_ASCENT 759
RAW_DESCENT 240
NORM_SPACE 8
RELATIVE_WEIGHT 40
RELATIVE_SETWIDTH 50
SUPERSCRIPT_X 0
SUPERSCRIPT_Y 6
SUPERSCRIPT_SIZE 14
SUBSCRIPT_X 0
SUBSCRIPT_Y -5
SUBSCRIPT_SIZE 14
FIGURE_WIDTH 15
AVG_LOWERCASE_WIDTH 135
AVG_UPPERCASE_WIDTH 160
ENDPROPERTIES
CHARS 268
STARTCHAR space
ENCODING 32
SWIDTH 317 0
DWIDTH 8 0
BBX 1 1 0 0
BITMAP
00
ENDCHAR
STARTCHAR exclam
ENCODING 33
SWIDTH 400 0
DWIDTH 10 0
BBX 2 18 4 0
BITMAP
C0
C0
C0
C0
C0
C0
C0
C0
C0
C0
C0
C0
00
00
00
C0
C0
C0
ENDCHAR
STARTCHAR quotedbl
ENCODING 34
SWIDTH 459 0
DWIDTH 11 0
BBX 6 7 2 11
BITMAP
CC
CC
CC
CC
CC
CC
CC
ENDCHAR
STARTCHAR numbersign
ENCODING 35
SWIDTH 837 0
DWIDTH 20 0
BBX 16 18 2 0
BITMAP
0308
0318
0318
0318
0218
7FFF
7FFF
0630
0430
0C20
0C60
FFFE
FFFE
1840
18C0
18C0
18C0
10C0
ENDCHAR
STARTCHAR dollar
ENCODING 36
SWIDTH 636 0
DWIDTH 15 0
BBX 11 22 2 -4
BITMAP
0400
0400
0400
1F80
7FC0
E440
C400
C400
E400
7C00
3F80
07C0
04E0
0460
0460
84E0
FFC0
3F00
0400
0400
0400
0400
ENDCHAR
STARTCHAR percent
ENCODING 37
SWIDTH 950 0
DWIDTH 23 0
BBX 20 18 1 0
BITMAP
3C0300
660700
C30600
C30C00
C31C00
C31800
C33800
C33000
6663C0
3C6660
00CC30
01CC30
018C30
038C30
030C30
060C30
0E0660
0C03C0
ENDCHAR
STARTCHAR ampersand
ENCODING 38
SWIDTH 779 0
DWIDTH 19 0
BBX 16 18 1 0
BITMAP
0FC0
1FE0
3820
3000
3000
3000
3800
1C00
3E00
7706
E386
C1CC
C0EC
C078
E038
70FC
3FCE
0F87
ENDCHAR
STARTCHAR quotesingle
ENCODING 39
SWIDTH 274 0
DWIDTH 7 0
BBX 2 7 2 11
BITMAP
C0
C0
C0
C0
C0
C0
C0
ENDCHAR
STARTCHAR parenleft
ENCODING 40
SWIDTH 390 0
DWIDTH 9 0
BBX 5 21 2 -3
BITMAP
18
30
30
60
60
60
C0
C0
C0
C0
C0
C0
C0
C0
C0
60
60
60
30
30
18
ENDCHAR
STARTCHAR parenright
ENCODING 41
SWIDTH 390 0
DWIDTH 9 0
BBX 5 21 2 -3
BITMAP
C0
60
60
30
30
30
18
18
18
18
18
18
18
18
18
30
30
30
60
60
C0
ENDCHAR
STARTCHAR asterisk
ENCODING 42
SWIDTH 500 0
DWIDTH 12 0
BBX 11 10 0 8
BITMAP
0400
0400
C460
75C0
1F00
1F00
75C0
C460
0400
0400
ENDCHAR
STARTCHAR plus
ENCODING 43
SWIDTH 837 0
DWIDTH 20 0
BBX 16 16 3 0
BITMAP
0180
0180
0180
0180
0180
0180
0180
FFFF
FFFF
0180
0180
0180
0180
0180
0180
0180
ENDCHAR
STARTCHAR comma
ENCODING 44
SWIDTH 317 0
DWIDTH 8 0
BBX 3 6 2 -3
BITMAP
60
60
60
60
C0
C0
ENDCHAR
STARTCHAR hyphen
ENCODING 45
SWIDTH 360 0
DWIDTH 9 0
BBX 6 2 1 6
BITMAP
FC
FC
ENDCHAR
STARTCHAR period
ENCODING 46
SWIDTH 317 0
DWIDTH 8 0
BBX 2 3 3 0
BITMAP
C0
C0
C0
ENDCHAR
STARTCHAR slash
ENCODING 47
SWIDTH 336 0
DWIDTH 8 0
BBX 8 20 0 -2
BITMAP
03
07
06
06
06
0C
0C
0C
1C
18
18
38
30
30
30
60
60
60
E0
C0
ENDCHAR
STARTCHAR zero
ENCODING 48
SWIDTH 636 0
DWIDTH 15 0
BBX 12 18 2 0
BITMAP
0F00
3FC0
70E0
6060
6060
C030
C030
C030
C030
C030
C030
C030
C030
6060
6060
70E0
3FC0
0F00
ENDCHAR
STARTCHAR one
ENCODING 49
SWIDTH 636 0
DWIDTH 15 0
BBX 10 18 3 0
BITMAP
3C00
FC00
CC00
0C00
0C00
0C00
0C00
0C00
0C00
0C00
0C00
0C00
0C00
0C00
0C00
0C00
FFC0
FFC0
ENDCHAR
STARTCHAR two
ENCODING 50
SWIDTH 636 0
DWIDTH 15 0
BBX 11 18 2 0
BITMAP
3F00
FF80
C1C0
00E0
0060
0060
0060
00C0
01C0
0180
0300
0600
0C00
1800
3000
E000
FFE0
FFE0
ENDCHAR
STARTCHAR three
ENCODING 51
SWIDTH 636 0
DWIDTH 15 0
BBX 12 18 2 0
BITMAP
3F00
7FC0
40C0
0060
0060
0060
0060
00C0
1F80
1FC0
00E0
0030
0030
0030
0030
80E0
FFC0
3F00
ENDCHAR
STARTCHAR four
ENCODING 52
SWIDTH 636 0
DWIDTH 15 0
BBX 13 18 1 0
BITMAP
01C0
03C0
02C0
06C0
0CC0
0CC0
18C0
38C0
30C0
60C0
60C0
C0C0
FFF8
FFF8
00C0
00C0
00C0
00C0
ENDCHAR
STARTCHAR five
ENCODING 53
SWIDTH 636 0
DWIDTH 15 0
BBX 11 18 2 0
BITMAP
7FC0
7FC0
6000
6000
6000
6000
7F00
7F80
41C0
00E0
0060
0060
0060
0060
00E0
81C0
FF80
7E00
ENDCHAR
STARTCHAR six
ENCODING 54
SWIDTH 636 0
DWIDTH 15 0
BBX 12 18 2 0
BITMAP
07C0
1FE0
3820
7000
6000
C000
CF80
DFC0
F8E0
F070
E030
E030
E030
6030
7070
78E0
3FC0
0F80
ENDCHAR
STARTCHAR seven
ENCODING 55
SWIDTH 636 0
DWIDTH 15 0
BBX 11 18 2 0
BITMAP
FFE0
FFE0
00C0
00C0
01C0
0180
0180
0300
0300
0700
0600
0600
0C00
0C00
1C00
1800
1800
3000
ENDCHAR
STARTCHAR eight
ENCODING 56
SWIDTH 636 0
DWIDTH 15 0
BBX 12 18 2 0
BITMAP
1F80
7FE0
70E0
C030
C030
C030
C030
70E0
3FC0
3FC0
70E0
C030
C030
C030
C030
70E0
7FE0
1F80
ENDCHAR
STARTCHAR nine
ENCODING 57
SWIDTH 636 0
DWIDTH 15 0
BBX 12 18 2 0
BITMAP
1F00
3FC0
71E0
E0E0
C060
C070
C070
C070
E0F0
71F0
3FB0
1F30
0030
0060
00E0
41C0
7F80
3E00
ENDCHAR
STARTCHAR colon
ENCODING 58
SWIDTH 336 0
DWIDTH 8 0
BBX 2 12 3 0
BITMAP
C0
C0
C0
00
00
00
00
00
00
C0
C0
C0
ENDCHAR
STARTCHAR semicolon
ENCODING 59
SWIDTH 336 0
DWIDTH 8 0
BBX 3 15 2 -3
BITMAP
60
60
60
00
00
00
00
00
00
60
60
60
60
C0
C0
ENDCHAR
STARTCHAR less
ENCODING 60
SWIDTH 837 0
DWIDTH 20 0
BBX 15 13 3 1
BITMAP
0002
001E
00FC
07E0
1F80
FC00
E000
FC00
1F80
07E0
00FC
001E
0002
ENDCHAR
STARTCHAR equal
ENCODING 61
SWIDTH 837 0
DWIDTH 20 0
BBX 15 7 3 4
BITMAP
FFFE
FFFE
0000
0000
0000
FFFE
FFFE
ENDCHAR
STARTCHAR greater
ENCODING 62
SWIDTH 837 0
DWIDTH 20 0
BBX 15 13 3 1
BITMAP
8000
F000
7E00
0FC0
03F0
007E
000E
007E
03F0
0FC0
7E00
F000
8000
ENDCHAR
STARTCHAR question
ENCODING 63
SWIDTH 530 0
DWIDTH 13 0
BBX 9 18 2 0
BITMAP
3E00
7F00
C380
8180
0180
0180
0300
0700
0E00
1C00
1800
1800
1800
0000
0000
1800
1800
1800
ENDCHAR
STARTCHAR at
ENCODING 64
SWIDTH 1000 0
DWIDTH 24 0
BBX 21 21 2 -4
BITMAP
00FC00
07FF00
0F03C0
1C00E0
300070
70F330
63FF38
E30F18
C60718
C60318
C60318
C60318
C60730
E38F70
63FFE0
70F380
380000
1C0080
0F0380
07FF00
01FC00
ENDCHAR
STARTCHAR A
ENCODING 65
SWIDTH 684 0
DWIDTH 16 0
BBX 16 18 0 0
BITMAP
03C0
03C0
03C0
07E0
0660
0660
0C30
0C30
0C30
1818
1818
381C
3FFC
3FFC
6006
6006
6006
C003
ENDCHAR
STARTCHAR B
ENCODING 66
SWIDTH 686 0
DWIDTH 16 0
BBX 12 18 2 0
BITMAP
FF00
FFC0
C0E0
C060
C060
C060
C060
C0C0
FF80
FFC0
C060
C030
C030
C030
C030
C060
FFE0
FF80
ENDCHAR
STARTCHAR C
ENCODING 67
SWIDTH 698 0
DWIDTH 17 0
BBX 14 18 1 0
BITMAP
07E0
1FF8
3C1C
7004
6000
E000
C000
C000
C000
C000
C000
C000
E000
6000
7004
3C1C
1FF8
07E0
ENDCHAR
STARTCHAR D
ENCODING 68
SWIDTH 770 0
DWIDTH 18 0
BBX 15 18 2 0
BITMAP
FF80
FFF0
C078
C01C
C00C
C00E
C006
C006
C006
C006
C006
C006
C00E
C00C
C01C
C078
FFF0
FF80
ENDCHAR
STARTCHAR E
ENCODING 69
SWIDTH 631 0
DWIDTH 15 0
BBX 11 18 2 0
BITMAP
FFE0
FFE0
C000
C000
C000
C000
C000
C000
FFC0
FFC0
C000
C000
C000
C000
C000
C000
FFE0
FFE0
ENDCHAR
STARTCHAR F
ENCODING 70
SWIDTH 575 0
DWIDTH 14 0
BBX 10 18 2 0
BITMAP
FFC0
FFC0
C000
C000
C000
C000
C000
C000
FF80
FF80
C000
C000
C000
C000
C000
C000
C000
C000
ENDCHAR
STARTCHAR G
ENCODING 71
SWIDTH 774 0
DWIDTH 19 0
BBX 15 18 1 0
BITMAP
07E0
1FF8
381C
7004
6000
E000
C000
C000
C07E
C07E
C006
C006
E006
6006
7006
3C0E
1FFC
07F0
ENDCHAR
STARTCHAR H
ENCODING 72
SWIDTH 751 0
DWIDTH 18 0
BBX 13 18 2 0
BITMAP
C018
C018
C018
C018
C018
C018
C018
C018
FFF8
FFF8
C018
C018
C018
C018
C018
C018
C018
C018
ENDCHAR
STARTCHAR I
ENCODING 73
SWIDTH 294 0
DWIDTH 7 0
BBX 2 18 2 0
BITMAP
C0
C0
C0
C0
C0
C0
C0
C0
C0
C0
C0
C0
C0
C0
C0
C0
C0
C0
ENDCHAR
STARTCHAR J
ENCODING 74
SWIDTH 294 0
DWIDTH 7 0
BBX 6 23 -2 -5
BITMAP
0C
0C
0C
0C
0C
0C
0C
0C
0C
0C
0C
0C
0C
0C
0C
0C
0C
0C
0C
0C
18
F8
F0
ENDCHAR
STARTCHAR K
ENCODING 75
SWIDTH 655 0
DWIDTH 16 0
BBX 14 18 2 0
BITMAP
C070
C0E0
C1C0
C380
C700
CE00
DC00
F800
F000
D800
CE00
C700
C380
C1C0
C0E0
C070
C038
C01C
ENDCHAR
STARTCHAR L
ENCODING 76
SWIDTH 557 0
DWIDTH 13 0
BBX 11 18 2 0
BITMAP
C000
C000
C000
C000
C000
C000
C000
C000
C000
C000
C000
C000
C000
C000
C000
C000
FFE0
FFE0
ENDCHAR
STARTCHAR M
ENCODING 77
SWIDTH 862 0
DWIDTH 21 0
BBX 16 18 2 0
BITMAP
E007
F00F
F00F
F81F
D81B
D81B
CC33
CC33
CC33
C663
C663
C7E3
C3C3
C3C3
C183
C003
C003
C003
ENDCHAR
STARTCHAR N
ENCODING 78
SWIDTH 748 0
DWIDTH 18 0
BBX 13 18 2 0
BITMAP
E018
F018
F018
F818
D818
CC18
CC18
C618
C618
C318
C318
C198
C198
C0D8
C0D8
C078
C078
C038
ENDCHAR
STARTCHAR O
ENCODING 79
SWIDTH 787 0
DWIDTH 19 0
BBX 16 18 1 0
BITMAP
07E0
1FF8
381C
700E
6006
E007
C003
C003
C003
C003
C003
C003
E007
6006
700E
381C
1FF8
07E0
ENDCHAR
STARTCHAR P
ENCODING 80
SWIDTH 603 0
DWIDTH 14 0
BBX 11 18 2 0
BITMAP
FF00
FFC0
C0C0
C060
C060
C060
C060
C0C0
FFC0
FF00
C000
C000
C000
C000
C000
C000
C000
C000
ENDCHAR
STARTCHAR Q
ENCODING 81
SWIDTH 787 0
DWIDTH 19 0
BBX 16 21 1 -3
BITMAP
07E0
1FF8
381C
700E
6006
E007
C003
C003
C003
C003
C003
C003
E007
6006
700E
381C
1FF8
07F0
0038
0018
000C
ENDCHAR
STARTCHAR R
ENCODING 82
SWIDTH 694 0
DWIDTH 17 0
BBX 13 18 2 0
BITMAP
FF00
FFC0
C0E0
C060
C060
C060
C060
C0C0
FFC0
FF80
C1C0
C0C0
C060
C060
C070
C030
C030
C018
ENDCHAR
STARTCHAR S
ENCODING 83
SWIDTH 634 0
DWIDTH 15 0
BBX 12 18 2 0
BITMAP
1F80
7FE0
7060
C000
C000
C000
C000
7000
7F00
1FC0
01E0
0070
0030
0030
0030
C0E0
FFE0
3F80
ENDCHAR
STARTCHAR T
ENCODING 84
SWIDTH 610 0
DWIDTH 15 0
BBX 14 18 0 0
BITMAP
FFFC
FFFC
0300
0300
0300
0300
0300
0300
0300
0300
0300
0300
0300
0300
0300
0300
0300
0300
ENDCHAR
STARTCHAR U
ENCODING 85
SWIDTH 731 0
DWIDTH 18 0
BBX 13 18 2 0
BITMAP
C018
C018
C018
C018
C018
C018
C018
C018
C018
C018
C018
C018
C018
C018
6030
7070
3FE0
0F80
ENDCHAR
STARTCHAR V
ENCODING 86
SWIDTH 684 0
DWIDTH 16 0
BBX 16 18 0 0
BITMAP
C003
6006
6006
6006
300C
300C
381C
1818
1818
0C30
0C30
0C30
0660
0660
07E0
03C0
03C0
03C0
ENDCHAR
STARTCHAR W
ENCODING 87
SWIDTH 988 0
DWIDTH 24 0
BBX 22 18 1 0
BITMAP
C0780C
C0780C
607818
607818
60EC18
60CC18
30CC30
30CC30
31CE30
318630
198660
198660
198660
1B0360
0F03C0
0F03C0
0F03C0
0E01C0
ENDCHAR
STARTCHAR X
ENCODING 88
SWIDTH 685 0
DWIDTH 16 0
BBX 15 18 1 0
BITMAP
700E
300C
1818
1C38
0C30
0660
07E0
03C0
0380
03C0
07C0
0E60
0C70
1830
3818
3018
600C
E00E
ENDCHAR
STARTCHAR Y
ENCODING 89
SWIDTH 610 0
DWIDTH 15 0
BBX 14 18 0 0
BITMAP
E01C
6018
3030
3870
1860
1CE0
0FC0
0780
0780
0300
0300
0300
0300
0300
0300
0300
0300
0300
ENDCHAR
STARTCHAR Z
ENCODING 90
SWIDTH 685 0
DWIDTH 16 0
BBX 14 18 1 0
BITMAP
FFFC
FFFC
0018
0038
0070
0060
00C0
0180
0380
0700
0600
0C00
1800
3800
7000
6000
FFFC
FFFC
ENDCHAR
STARTCHAR bracketleft
ENCODING 91
SWIDTH 390 0
DWIDTH 9 0
BBX 5 21 2 -3
BITMAP
F8
F8
C0
C0
C0
C0
C0
C0
C0
C0
C0
C0
C0
C0
C0
C0
C0
C0
C0
F8
F8
ENDCHAR
STARTCHAR backslash
ENCODING 92
SWIDTH 336 0
DWIDTH 8 0
BBX 8 20 0 -2
BITMAP
C0
E0
60
60
60
30
30
30
18
18
18
18
0C
0C
0C
06
06
06
07
03
ENDCHAR
STARTCHAR bracketright
ENCODING 93
SWIDTH 390 0
DWIDTH 9 0
BBX 5 21 2 -3
BITMAP
F8
F8
18
18
18
18
18
18
18
18
18
18
18
18
18
18
18
18
18
F8
F8
ENDCHAR
STARTCHAR asciicircum
ENCODING 94
SWIDTH 837 0
DWIDTH 20 0
BBX 15 7 3 11
BITMAP
0380
07C0
0EE0
1C70
3838
701C
E00E
ENDCHAR
STARTCHAR underscore
ENCODING 95
SWIDTH 500 0
DWIDTH 12 0
BBX 12 2 0 -6
BITMAP
FFF0
FFF0
ENDCHAR
STARTCHAR grave
ENCODING 96
SWIDTH 500 0
DWIDTH 12 0
BBX 6 4 2 15
BITMAP
E0
30
18
0C
ENDCHAR
STARTCHAR a
ENCODING 97
SWIDTH 612 0
DWIDTH 14 0
BBX 11 13 1 0
BITMAP
3F00
7FC0
40C0
0060
0060
1FE0
7FE0
E060
C060
C0E0
E1E0
7FE0
3E60
ENDCHAR
STARTCHAR b
ENCODING 98
SWIDTH 634 0
DWIDTH 15 0
BBX 12 18 2 0
BITMAP
C000
C000
C000
C000
C000
CF80
FFC0
F0E0
E060
C030
C030
C030
C030
C030
E060
F0E0
FFC0
CF80
ENDCHAR
STARTCHAR c
ENCODING 99
SWIDTH 549 0
DWIDTH 13 0
BBX 10 13 1 0
BITMAP
0F80
3FC0
7040
6000
C000
C000
C000
C000
C000
6000
7040
3FC0
1F80
ENDCHAR
STARTCHAR d
ENCODING 100
SWIDTH 634 0
DWIDTH 15 0
BBX 12 18 1 0
BITMAP
0030
0030
0030
0030
0030
1F30
3FF0
70F0
6070
C030
C030
C030
C030
C030
6070
70F0
3FF0
1F30
ENDCHAR
STARTCHAR e
ENCODING 101
SWIDTH 615 0
DWIDTH 14 0
BBX 12 13 1 0
BITMAP
0F80
3FC0
70E0
6030
C030
FFF0
FFF0
C000
C000
6000
7020
3FE0
0FC0
ENDCHAR
STARTCHAR f
ENCODING 102
SWIDTH 352 0
DWIDTH 8 0
BBX 8 18 1 0
BITMAP
0F
1F
30
30
30
FF
FF
30
30
30
30
30
30
30
30
30
30
30
ENDCHAR
STARTCHAR g
ENCODING 103
SWIDTH 634 0
DWIDTH 15 0
BBX 12 18 1 -5
BITMAP
1F30
3FF0
70F0
E070
C030
C030
C030
C030
C030
E070
70F0
3FF0
1F30
0030
0070
20E0
3FC0
1F80
ENDCHAR
STARTCHAR h
ENCODING 104
SWIDTH 633 0
DWIDTH 15 0
BBX 11 18 2 0
BITMAP
C000
C000
C000
C000
C000
CF80
FFC0
F0E0
E060
C060
C060
C060
C060
C060
C060
C060
C060
C060
ENDCHAR
STARTCHAR i
ENCODING 105
SWIDTH 277 0
DWIDTH 7 0
BBX 2 18 2 0
BITMAP
C0
C0
C0
00
00
C0
C0
C0
C0
C0
C0
C0
C0
C0
C0
C0
C0
C0
ENDCHAR
STARTCHAR j
ENCODING 106
SWIDTH 277 0
DWIDTH 7 0
BBX 5 23 -1 -5
BITMAP
18
18
18
00
00
18
18
18
18
18
18
18
18
18
18
18
18
18
18
18
18
F0
E0
ENDCHAR
STARTCHAR k
ENCODING 107
SWIDTH 579 0
DWIDTH 14 0
BBX 11 18 2 0
BITMAP
C000
C000
C000
C000
C000
C1C0
C380
C700
CE00
DC00
F800
F800
DC00
CE00
C700
C380
C1C0
C0E0
ENDCHAR
STARTCHAR l
ENCODING 108
SWIDTH 277 0
DWIDTH 6 0
BBX 2 18 2 0
BITMAP
C0
C0
C0
C0
C0
C0
C0
C0
C0
C0
C0
C0
C0
C0
C0
C0
C0
C0
ENDCHAR
STARTCHAR m
ENCODING 109
SWIDTH 974 0
DWIDTH 24 0
BBX 20 13 2 0
BITMAP
CF87C0
FFDFE0
F0F870
E07030
C06030
C06030
C06030
C06030
C06030
C06030
C06030
C06030
C06030
ENDCHAR
STARTCHAR n
ENCODING 110
SWIDTH 633 0
DWIDTH 15 0
BBX 11 13 2 0
BITMAP
CF80
FFC0
F0E0
E060
C060
C060
C060
C060
C060
C060
C060
C060
C060
ENDCHAR
STARTCHAR o
ENCODING 111
SWIDTH 611 0
DWIDTH 14 0
BBX 12 13 1 0
BITMAP
1F80
3FC0
70E0
E060
C030
C030
C030
C030
C030
E060
70E0
3FC0
1F80
ENDCHAR
STARTCHAR p
ENCODING 112
SWIDTH 634 0
DWIDTH 15 0
BBX 12 18 2 -5
BITMAP
CF80
FFC0
F0E0
E060
C030
C030
C030
C030
C030
E060
F0E0
FFC0
CF80
C000
C000
C000
C000
C000
ENDCHAR
STARTCHAR q
ENCODING 113
SWIDTH 634 0
DWIDTH 15 0
BBX 12 18 1 -5
BITMAP
1F30
3FF0
70F0
6070
C030
C030
C030
C030
C030
6070
70F0
3FF0
1F30
0030
0030
0030
0030
0030
ENDCHAR
STARTCHAR r
ENCODING 114
SWIDTH 411 0
DWIDTH 10 0
BBX 8 13 2 0
BITMAP
CF
FF
F0
E0
C0
C0
C0
C0
C0
C0
C0
C0
C0
ENDCHAR
STARTCHAR s
ENCODING 115
SWIDTH 520 0
DWIDTH 12 0
BBX 10 13 1 0
BITMAP
3F00
7F80
E080
C000
C000
FC00
3F80
07C0
00C0
00C0
81C0
FF80
7F00
ENDCHAR
STARTCHAR t
ENCODING 116
SWIDTH 392 0
DWIDTH 9 0
BBX 8 17 0 0
BITMAP
30
30
30
30
FF
FF
30
30
30
30
30
30
30
30
30
3F
1F
ENDCHAR
STARTCHAR u
ENCODING 117
SWIDTH 633 0
DWIDTH 15 0
BBX 11 13 2 0
BITMAP
C060
C060
C060
C060
C060
C060
C060
C060
C060
C0E0
E1E0
7FE0
3E60
ENDCHAR
STARTCHAR v
ENCODING 118
SWIDTH 591 0
DWIDTH 15 0
BBX 13 13 1 0
BITMAP
C018
6030
6030
6070
3060
3060
18E0
18C0
18C0
0D80
0D80
0F80
0700
ENDCHAR
STARTCHAR w
ENCODING 119
SWIDTH 817 0
DWIDTH 20 0
BBX 18 13 1 0
BITMAP
C1E0C0
C1E0C0
61E180
61E180
633180
733380
333300
333300
361B00
1E1E00
1E1E00
1E1E00
1C0E00
ENDCHAR
STARTCHAR x
ENCODING 120
SWIDTH 591 0
DWIDTH 15 0
BBX 13 13 1 0
BITMAP
E038
7070
38E0
18C0
0D80
0F80
0700
0F80
1DC0
18C0
3060
7070
E038
ENDCHAR
STARTCHAR y
ENCODING 121
SWIDTH 591 0
DWIDTH 15 0
BBX 13 18 1 -5
BITMAP
C018
6030
6030
7070
3060
30E0
18C0
18C0
0D80
0D80
0F80
0700
0700
0600
0600
0C00
7C00
7800
ENDCHAR
STARTCHAR z
ENCODING 122
SWIDTH 524 0
DWIDTH 13 0
BBX 11 13 1 0
BITMAP
FFE0
FFE0
00C0
01C0
0380
0700
0E00
1C00
3800
7000
6000
FFE0
FFE0
ENDCHAR
STARTCHAR braceleft
ENCODING 123
SWIDTH 636 0
DWIDTH 15 0
BBX 9 22 3 -4
BITMAP
0780
0F80
0C00
0C00
0C00
0C00
0C00
0C00
0C00
1C00
F800
F800
1C00
0C00
0C00
0C00
0C00
0C00
0C00
0C00
0F80
0780
ENDCHAR
STARTCHAR bar
ENCODING 124
SWIDTH 336 0
DWIDTH 8 0
BBX 2 24 3 -6
BITMAP
C0
C0
C0
C0
C0
C0
C0
C0
C0
C0
C0
C0
C0
C0
C0
C0
C0
C0
C0
C0
C0
C0
C0
C0
ENDCHAR
STARTCHAR braceright
ENCODING 125
SWIDTH 636 0
DWIDTH 15 0
BBX 9 22 3 -4
BITMAP
F000
F800
1800
1800
1800
1800
1800
1800
1800
1C00
0F80
0F80
1C00
1800
1800
1800
1800
1800
1800
1800
F800
F000
ENDCHAR
STARTCHAR asciitilde
ENCODING 126
SWIDTH 837 0
DWIDTH 20 0
BBX 15 4 3 5
BITMAP
3E02
7F86
C3FC
00F8
ENDCHAR
STARTCHAR nonbreakingspace
ENCODING 160
SWIDTH 636 0
DWIDTH 15 0
BBX 1 1 0 0
BITMAP
00
ENDCHAR
STARTCHAR exclamdown
ENCODING 161
SWIDTH 400 0
DWIDTH 10 0
BBX 2 18 4 0
BITMAP
C0
C0
C0
00
00
00
C0
C0
C0
C0
C0
C0
C0
C0
C0
C0
C0
C0
ENDCHAR
STARTCHAR cent
ENCODING 162
SWIDTH 636 0
DWIDTH 15 0
BBX 10 19 2 -3
BITMAP
0200
0200
0200
0F80
3FC0
7240
6200
C200
C200
C200
C200
C200
6200
7240
3FC0
0F80
0200
0200
0200
ENDCHAR
STARTCHAR sterling
ENCODING 163
SWIDTH 636 0
DWIDTH 15 0
BBX 12 18 1 0
BITMAP
03E0
0FF0
0C10
1800
1800
1800
1800
1800
1800
7FC0
7FC0
1800
1800
1800
1800
1800
FFF0
FFF0
ENDCHAR
STARTCHAR currency
ENCODING 164
SWIDTH 636 0
DWIDTH 15 0
BBX 14 14 1 1
BITMAP
4008
E01C
77B8
3FF0
1860
3030
3030
3030
3030
1860
3FF0
77B8
E01C
4008
ENDCHAR
STARTCHAR yen
ENCODING 165
SWIDTH 636 0
DWIDTH 15 0
BBX 12 18 1 0
BITMAP
C030
6060
6060
30C0
30C0
3980
1980
FFF0
FFF0
0F00
0600
FFF0
FFF0
0600
0600
0600
0600
0600
ENDCHAR
STARTCHAR brokenbar
ENCODING 166
SWIDTH 336 0
DWIDTH 8 0
BBX 2 21 3 -4
BITMAP
C0
C0
C0
C0
C0
C0
C0
C0
C0
00
00
00
C0
C0
C0
C0
C0
C0
C0
C0
C0
ENDCHAR
STARTCHAR section
ENCODING 167
SWIDTH 500 0
DWIDTH 12 0
BBX 10 20 1 -2
BITMAP
1F00
3F80
7080
6000
6000
3800
3C00
6F00
C380
C1C0
E0C0
70C0
3D80
0F00
0380
0180
0180
4380
7F00
3E00
ENDCHAR
STARTCHAR dieresis
ENCODING 168
SWIDTH 500 0
DWIDTH 12 0
BBX 6 2 3 16
BITMAP
CC
CC
ENDCHAR
STARTCHAR copyright
ENCODING 169
SWIDTH 1000 0
DWIDTH 24 0
BBX 17 17 3 0
BITMAP
03E000
0C1800
300600
23E200
4E1100
CC0100
980080
980080
980080
980080
980080
4C0100
4E1100
23E200
300600
0C1800
03E000
ENDCHAR
STARTCHAR ordfeminine
ENCODING 170
SWIDTH 471 0
DWIDTH 11 0
BBX 9 12 1 6
BITMAP
3E00
4300
0180
0180
3F80
E180
C180
C180
E380
7D80
0000
FF80
ENDCHAR
STARTCHAR guillemotleft
ENCODING 171
SWIDTH 611 0
DWIDTH 15 0
BBX 12 11 2 1
BITMAP
0410
0C30
1C70
38E0
71C0
E380
71C0
38E0
1C70
0C30
0410
ENDCHAR
STARTCHAR logicalnot
ENCODING 172
SWIDTH 837 0
DWIDTH 20 0
BBX 15 7 3 3
BITMAP
FFFE
FFFE
0006
0006
0006
0006
0006
ENDCHAR
STARTCHAR sfthyphen
ENCODING 173
SWIDTH 360 0
DWIDTH 9 0
BBX 6 2 1 6
BITMAP
FC
FC
ENDCHAR
STARTCHAR registered
ENCODING 174
SWIDTH 1000 0
DWIDTH 24 0
BBX 17 17 3 0
BITMAP
03E000
0C1800
300600
27E200
463100
C63100
863080
863080
87C080
864080
866080
463100
463100
261A00
300600
0C1800
03E000
ENDCHAR
STARTCHAR macron
ENCODING 175
SWIDTH 500 0
DWIDTH 12 0
BBX 7 2 3 16
BITMAP
FE
FE
ENDCHAR
STARTCHAR degree
ENCODING 176
SWIDTH 500 0
DWIDTH 12 0
BBX 7 7 2 11
BITMAP
38
44
82
82
82
44
38
ENDCHAR
STARTCHAR plusminus
ENCODING 177
SWIDTH 837 0
DWIDTH 20 0
BBX 16 16 2 0
BITMAP
0180
0180
0180
0180
0180
FFFF
FFFF
0180
0180
0180
0180
0180
0000
0000
FFFF
FFFF
ENDCHAR
STARTCHAR twosuperior
ENCODING 178
SWIDTH 400 0
DWIDTH 10 0
BBX 7 10 1 8
BITMAP
78
8E
06
06
0E
1C
38
30
60
FE
ENDCHAR
STARTCHAR threesuperior
ENCODING 179
SWIDTH 400 0
DWIDTH 10 0
BBX 7 10 1 8
BITMAP
FC
06
06
06
38
0E
06
06
0E
F8
ENDCHAR
STARTCHAR acute
ENCODING 180
SWIDTH 500 0
DWIDTH 12 0
BBX 5 4 4 15
BITMAP
18
30
60
C0
ENDCHAR
STARTCHAR mu
ENCODING 181
SWIDTH 636 0
DWIDTH 15 0
BBX 13 18 2 -5
BITMAP
C060
C060
C060
C060
C060
C060
C060
C060
C060
C060
E0E0
FFF8
DF38
C000
C000
C000
C000
C000
ENDCHAR
STARTCHAR paragraph
ENCODING 182
SWIDTH 636 0
DWIDTH 15 0
BBX 11 20 2 -2
BITMAP
1FE0
7E60
7E60
FE60
FE60
FE60
FE60
7E60
3E60
0E60
0660
0660
0660
0660
0660
0660
0660
0660
0660
0660
ENDCHAR
STARTCHAR periodcentered
ENCODING 183
SWIDTH 317 0
DWIDTH 8 0
BBX 2 3 3 7
BITMAP
C0
C0
C0
ENDCHAR
STARTCHAR cedilla
ENCODING 184
SWIDTH 500 0
DWIDTH 12 0
BBX 5 5 3 -5
BITMAP
10
18
18
F8
F0
ENDCHAR
STARTCHAR onesuperior
ENCODING 185
SWIDTH 400 0
DWIDTH 10 0
BBX 6 10 2 8
BITMAP
F0
30
30
30
30
30
30
30
30
FC
ENDCHAR
STARTCHAR ordmasculine
ENCODING 186
SWIDTH 471 0
DWIDTH 11 0
BBX 9 12 1 6
BITMAP
3E00
6300
C180
C180
C180
C180
C180
C180
6300
3E00
0000
7F00
ENDCHAR
STARTCHAR guillemotright
ENCODING 187
SWIDTH 611 0
DWIDTH 15 0
BBX 12 11 2 1
BITMAP
8200
C300
E380
71C0
38E0
1C70
38E0
71C0
E380
C300
8200
ENDCHAR
STARTCHAR onequarter
ENCODING 188
SWIDTH 969 0
DWIDTH 23 0
BBX 22 18 2 0
BITMAP
F00300
300700
300600
300E00
300C00
301800
303800
303000
307070
FC60F0
00C0B0
01C130
018330
038630
030430
0607FC
0E0030
0C0030
ENDCHAR
STARTCHAR onehalf
ENCODING 189
SWIDTH 969 0
DWIDTH 23 0
BBX 20 18 2 0
BITMAP
F00300
300700
300600
300E00
300C00
301800
303800
303000
3073C0
FC6460
00C030
01C070
018060
0380E0
0301C0
060380
0E0700
0C07F0
ENDCHAR
STARTCHAR threequarters
ENCODING 190
SWIDTH 969 0
DWIDTH 23 0
BBX 23 18 1 0
BITMAP
FC0180
060380
060300
060700
380600
0E0C00
061C00
061800
0E3838
F83078
006058
00E098
00C198
01C318
018218
0303FE
070018
060018
ENDCHAR
STARTCHAR questiondown
ENCODING 191
SWIDTH 530 0
DWIDTH 13 0
BBX 9 18 2 0
BITMAP
0C00
0C00
0C00
0000
0000
0C00
0C00
0C00
1C00
3800
7000
6000
C000
C000
C080
E180
7F00
3E00
ENDCHAR
STARTCHAR Agrave
ENCODING 192
SWIDTH 684 0
DWIDTH 16 0
BBX 16 22 0 0
BITMAP
0300
0180
0180
0000
03C0
03C0
03C0
07E0
0660
0660
0C30
0C30
0C30
1818
1818
381C
3FFC
3FFC
6006
6006
6006
C003
ENDCHAR
STARTCHAR Aacute
ENCODING 193
SWIDTH 684 0
DWIDTH 16 0
BBX 16 22 0 0
BITMAP
00C0
0180
0100
0000
03C0
03C0
03C0
07E0
0660
0660
0C30
0C30
0C30
1818
1818
381C
3FFC
3FFC
6006
6006
6006
C003
ENDCHAR
STARTCHAR Acircumflex
ENCODING 194
SWIDTH 684 0
DWIDTH 16 0
BBX 16 22 0 0
BITMAP
0380
06C0
0460
0000
03C0
03C0
03C0
07E0
0660
0660
0C30
0C30
0C30
1818
1818
381C
3FFC
3FFC
6006
6006
6006
C003
ENDCHAR
STARTCHAR Atilde
ENCODING 195
SWIDTH 684 0
DWIDTH 16 0
BBX 16 21 0 0
BITMAP
0710
08E0
0000
03C0
03C0
03C0
07E0
0660
0660
0C30
0C30
0C30
1818
1818
381C
3FFC
3FFC
6006
6006
6006
C003
ENDCHAR
STARTCHAR Adieresis
ENCODING 196
SWIDTH 684 0
DWIDTH 16 0
BBX 16 22 0 0
BITMAP
0660
0660
0000
0000
03C0
03C0
03C0
07E0
0660
0660
0C30
0C30
0C30
1818
1818
381C
3FFC
3FFC
6006
6006
6006
C003
ENDCHAR
STARTCHAR Aring
ENCODING 197
SWIDTH 684 0
DWIDTH 16 0
BBX 16 23 0 0
BITMAP
03C0
0660
0420
0420
0660
03C0
03C0
07E0
0660
0660
0E70
0C30
0C30
1818
1818
1818
300C
3FFC
3FFC
6006
6006
6006
C003
ENDCHAR
STARTCHAR AE
ENCODING 198
SWIDTH 974 0
DWIDTH 23 0
BBX 21 18 0 0
BITMAP
01FFF8
03FFF8
033000
033000
063000
063000
0E3000
0C3000
0C3FF0
183FF0
183000
183000
3FF000
3FF000
703000
603000
603FF8
C03FF8
ENDCHAR
STARTCHAR Ccedilla
ENCODING 199
SWIDTH 698 0
DWIDTH 17 0
BBX 14 23 1 -5
BITMAP
07E0
1FF8
3C1C
7004
6000
E000
C000
C000
C000
C000
C000
C000
E000
6000
7004
3C1C
1FF8
07E0
0040
0040
00E0
03C0
03C0
ENDCHAR
STARTCHAR Egrave
ENCODING 200
SWIDTH 631 0
DWIDTH 15 0
BBX 11 22 2 0
BITMAP
1800
0C00
0600
0000
FFE0
FFE0
C000
C000
C000
C000
C000
C000
FFC0
FFC0
C000
C000
C000
C000
C000
C000
FFE0
FFE0
ENDCHAR
STARTCHAR Eacute
ENCODING 201
SWIDTH 631 0
DWIDTH 15 0
BBX 11 22 2 0
BITMAP
0300
0600
0C00
0000
FFE0
FFE0
C000
C000
C000
C000
C000
C000
FFC0
FFC0
C000
C000
C000
C000
C000
C000
FFE0
FFE0
ENDCHAR
STARTCHAR Ecircumflex
ENCODING 202
SWIDTH 631 0
DWIDTH 15 0
BBX 11 22 2 0
BITMAP
0E00
1B00
3100
0000
FFE0
FFE0
C000
C000
C000
C000
C000
C000
FFC0
FFC0
C000
C000
C000
C000
C000
C000
FFE0
FFE0
ENDCHAR
STARTCHAR Edieresis
ENCODING 203
SWIDTH 631 0
DWIDTH 15 0
BBX 11 22 2 0
BITMAP
1980
1980
0000
0000
FFE0
FFE0
C000
C000
C000
C000
C000
C000
FFC0
FFC0
C000
C000
C000
C000
C000
C000
FFE0
FFE0
ENDCHAR
STARTCHAR Igrave
ENCODING 204
SWIDTH 294 0
DWIDTH 7 0
BBX 4 22 1 0
BITMAP
C0
60
30
00
60
60
60
60
60
60
60
60
60
60
60
60
60
60
60
60
60
60
ENDCHAR
STARTCHAR Iacute
ENCODING 205
SWIDTH 294 0
DWIDTH 7 0
BBX 4 22 2 0
BITMAP
70
60
C0
00
C0
C0
C0
C0
C0
C0
C0
C0
C0
C0
C0
C0
C0
C0
C0
C0
C0
C0
ENDCHAR
STARTCHAR Icircumflex
ENCODING 206
SWIDTH 294 0
DWIDTH 7 0
BBX 6 22 0 0
BITMAP
38
68
CC
00
30
30
30
30
30
30
30
30
30
30
30
30
30
30
30
30
30
30
ENDCHAR
STARTCHAR Idieresis
ENCODING 207
SWIDTH 294 0
DWIDTH 7 0
BBX 6 22 1 0
BITMAP
CC
CC
00
00
60
60
60
60
60
60
60
60
60
60
60
60
60
60
60
60
60
60
ENDCHAR
STARTCHAR Eth
ENCODING 208
SWIDTH 774 0
DWIDTH 19 0
BBX 17 18 0 0
BITMAP
3FE000
3FF800
301E00
300700
300300
300380
300180
300180
FF0180
FF0180
300180
300180
300380
300300
300700
301E00
3FF800
3FE000
ENDCHAR
STARTCHAR Ntilde
ENCODING 209
SWIDTH 748 0
DWIDTH 18 0
BBX 13 21 2 0
BITMAP
0E20
11C0
0000
E018
F018
F018
F818
D818
CC18
CC18
C618
C618
C318
C318
C198
C198
C0D8
C0D8
C078
C078
C038
ENDCHAR
STARTCHAR Ograve
ENCODING 210
SWIDTH 787 0
DWIDTH 19 0
BBX 16 22 1 0
BITMAP
0300
0180
00C0
0000
07E0
1FF8
381C
700E
6006
E007
C003
C003
C003
C003
C003
C003
E007
6006
700E
381C
1FF8
07E0
ENDCHAR
STARTCHAR Oacute
ENCODING 211
SWIDTH 787 0
DWIDTH 19 0
BBX 16 22 1 0
BITMAP
00C0
00C0
0180
0000
07E0
1FF8
381C
700E
6006
E007
C003
C003
C003
C003
C003
C003
E007
6006
700E
381C
1FF8
07E0
ENDCHAR
STARTCHAR Ocircumflex
ENCODING 212
SWIDTH 787 0
DWIDTH 19 0
BBX 16 22 1 0
BITMAP
0380
02C0
0660
0000
07E0
1FF8
381C
700E
6006
E007
C003
C003
C003
C003
C003
C003
E007
6006
700E
381C
1FF8
07E0
ENDCHAR
STARTCHAR Otilde
ENCODING 213
SWIDTH 787 0
DWIDTH 19 0
BBX 16 21 1 0
BITMAP
0790
0CF0
0000
07E0
1FF8
381C
700E
6006
E007
C003
C003
C003
C003
C003
C003
E007
6006
700E
381C
1FF8
07E0
ENDCHAR
STARTCHAR Odieresis
ENCODING 214
SWIDTH 787 0
DWIDTH 19 0
BBX 16 22 1 0
BITMAP
0660
0660
0000
0000
07E0
1FF8
381C
700E
6006
E007
C003
C003
C003
C003
C003
C003
E007
6006
700E
381C
1FF8
07E0
ENDCHAR
STARTCHAR multiply
ENCODING 215
SWIDTH 837 0
DWIDTH 20 0
BBX 14 14 3 0
BITMAP
4008
E01C
7038
3870
1CE0
0FC0
0780
0780
0FC0
1CE0
3870
7038
E01C
4008
ENDCHAR
STARTCHAR Oslash
ENCODING 216
SWIDTH 787 0
DWIDTH 19 0
BBX 16 18 1 0
BITMAP
07E3
1FFB
383E
700E
601E
E037
C063
C0E3
C1C3
C383
C703
C603
EC07
7806
700E
7C1C
5FF8
C7E0
ENDCHAR
STARTCHAR Ugrave
ENCODING 217
SWIDTH 731 0
DWIDTH 18 0
BBX 13 22 2 0
BITMAP
0C00
0600
0300
0000
C018
C018
C018
C018
C018
C018
C018
C018
C018
C018
C018
C018
C018
C018
6030
7070
3FE0
0F80
ENDCHAR
STARTCHAR Uacute
ENCODING 218
SWIDTH 731 0
DWIDTH 18 0
BBX 13 22 2 0
BITMAP
0180
0300
0600
0000
C018
C018
C018
C018
C018
C018
C018
C018
C018
C018
C018
C018
C018
C018
6030
7070
3FE0
0F80
ENDCHAR
STARTCHAR Ucircumflex
ENCODING 219
SWIDTH 731 0
DWIDTH 18 0
BBX 13 22 2 0
BITMAP
0700
0D80
1880
0000
C018
C018
C018
C018
C018
C018
C018
C018
C018
C018
C018
C018
C018
C018
6030
7070
3FE0
0F80
ENDCHAR
STARTCHAR Udieresis
ENCODING 220
SWIDTH 731 0
DWIDTH 18 0
BBX 13 22 2 0
BITMAP
0CC0
0CC0
0000
0000
C018
C018
C018
C018
C018
C018
C018
C018
C018
C018
C018
C018
C018
C018
6030
7070
3FE0
0F80
ENDCHAR
STARTCHAR Yacute
ENCODING 221
SWIDTH 610 0
DWIDTH 15 0
BBX 14 22 0 0
BITMAP
0180
0300
0300
0000
E01C
6018
3030
3870
1860
1CE0
0FC0
0780
0780
0300
0300
0300
0300
0300
0300
0300
0300
0300
ENDCHAR
STARTCHAR Thorn
ENCODING 222
SWIDTH 604 0
DWIDTH 15 0
BBX 11 18 2 0
BITMAP
C000
C000
C000
FF00
FFC0
C0C0
C060
C060
C060
C060
C0C0
FFC0
FF00
C000
C000
C000
C000
C000
ENDCHAR
STARTCHAR germandbls
ENCODING 223
SWIDTH 629 0
DWIDTH 15 0
BBX 12 18 2 0
BITMAP
1F00
7FC0
E0C0
C060
C0E0
C380
C600
C600
C600
C780
C1C0
C0E0
C030
C030
C030
D070
DFE0
CF80
ENDCHAR
STARTCHAR agrave
ENCODING 224
SWIDTH 612 0
DWIDTH 14 0
BBX 11 19 1 0
BITMAP
3800
1C00
0600
0300
0000
0000
3F00
7FC0
40C0
0060
0060
1FE0
7FE0
E060
C060
C0E0
E1E0
7FE0
3E60
ENDCHAR
STARTCHAR aacute
ENCODING 225
SWIDTH 612 0
DWIDTH 14 0
BBX 11 19 1 0
BITMAP
0180
0300
0600
0C00
0000
0000
3F00
7FC0
40C0
0060
0060
1FE0
7FE0
E060
C060
C0E0
E1E0
7FE0
3E60
ENDCHAR
STARTCHAR acircumflex
ENCODING 226
SWIDTH 612 0
DWIDTH 14 0
BBX 11 19 1 0
BITMAP
0E00
0A00
1B00
3180
0000
0000
3F00
7FC0
40C0
0060
0060
1FE0
7FE0
E060
C060
C0E0
E1E0
7FE0
3E60
ENDCHAR
STARTCHAR atilde
ENCODING 227
SWIDTH 612 0
DWIDTH 14 0
BBX 11 19 1 0
BITMAP
1C40
2640
2380
0000
0000
0000
3F00
7FC0
40C0
0060
0060
1FE0
7FE0
E060
C060
C0E0
E1E0
7FE0
3E60
ENDCHAR
STARTCHAR adieresis
ENCODING 228
SWIDTH 612 0
DWIDTH 14 0
BBX 11 18 1 0
BITMAP
1980
1980
0000
0000
0000
3F00
7FC0
40C0
0060
0060
1FE0
7FE0
E060
C060
C0E0
E1E0
7FE0
3E60
ENDCHAR
STARTCHAR aring
ENCODING 229
SWIDTH 612 0
DWIDTH 14 0
BBX 11 21 1 0
BITMAP
0F00
1980
1080
1080
1980
0F00
0000
0000
3F00
7FC0
40C0
0060
0060
1FE0
7FE0
E060
C060
C0E0
E1E0
7FE0
3E60
ENDCHAR
STARTCHAR ae
ENCODING 230
SWIDTH 981 0
DWIDTH 23 0
BBX 21 13 1 0
BITMAP
3F0FC0
7FDFE0
40F870
007018
006018
1FFFF8
7FFFF8
E06000
C06000
C0F000
E1B810
7F9FF0
3E07E0
ENDCHAR
STARTCHAR ccedilla
ENCODING 231
SWIDTH 549 0
DWIDTH 13 0
BBX 10 18 1 -5
BITMAP
0F80
3FC0
7040
6000
C000
C000
C000
C000
C000
6000
7040
3FC0
1F80
0100
0100
0180
0F80
0F00
ENDCHAR
STARTCHAR egrave
ENCODING 232
SWIDTH 615 0
DWIDTH 14 0
BBX 12 19 1 0
BITMAP
1C00
0C00
0600
0300
0000
0000
0F80
3FC0
70E0
6030
C030
FFF0
FFF0
C000
C000
6000
7020
3FE0
0FC0
ENDCHAR
STARTCHAR eacute
ENCODING 233
SWIDTH 615 0
DWIDTH 14 0
BBX 12 19 1 0
BITMAP
00C0
0180
0300
0600
0000
0000
0F80
3FC0
70E0
6030
C030
FFF0
FFF0
C000
C000
6000
7020
3FE0
0FC0
ENDCHAR
STARTCHAR ecircumflex
ENCODING 234
SWIDTH 615 0
DWIDTH 14 0
BBX 12 19 1 0
BITMAP
0600
0F00
0980
1880
0000
0000
0F80
3FC0
70E0
6030
C030
FFF0
FFF0
C000
C000
6000
7020
3FE0
0FC0
ENDCHAR
STARTCHAR edieresis
ENCODING 235
SWIDTH 615 0
DWIDTH 14 0
BBX 12 18 1 0
BITMAP
0CC0
0CC0
0000
0000
0000
0F80
3FC0
70E0
6030
C030
FFF0
FFF0
C000
C000
6000
7020
3FE0
0FC0
ENDCHAR
STARTCHAR igrave
ENCODING 236
SWIDTH 277 0
DWIDTH 7 0
BBX 5 19 0 0
BITMAP
C0
60
30
18
00
00
30
30
30
30
30
30
30
30
30
30
30
30
30
ENDCHAR
STARTCHAR iacute
ENCODING 237
SWIDTH 277 0
DWIDTH 7 0
BBX 5 19 2 0
BITMAP
38
30
60
C0
00
00
C0
C0
C0
C0
C0
C0
C0
C0
C0
C0
C0
C0
C0
ENDCHAR
STARTCHAR icircumflex
ENCODING 238
SWIDTH 277 0
DWIDTH 7 0
BBX 6 19 0 0
BITMAP
30
78
C8
8C
00
00
30
30
30
30
30
30
30
30
30
30
30
30
30
ENDCHAR
STARTCHAR idieresis
ENCODING 239
SWIDTH 277 0
DWIDTH 7 0
BBX 6 18 0 0
BITMAP
CC
CC
00
00
00
30
30
30
30
30
30
30
30
30
30
30
30
30
ENDCHAR
STARTCHAR eth
ENCODING 240
SWIDTH 611 0
DWIDTH 14 0
BBX 12 18 1 0
BITMAP
1820
0DE0
1E00
7300
0180
1FC0
3FE0
7060
6070
C030
C030
C030
C030
C030
6060
70E0
3FC0
1F80
ENDCHAR
STARTCHAR ntilde
ENCODING 241
SWIDTH 633 0
DWIDTH 15 0
BBX 11 19 2 0
BITMAP
1C40
2E80
2380
0000
0000
0000
CF80
FFC0
F0E0
E060
C060
C060
C060
C060
C060
C060
C060
C060
C060
ENDCHAR
STARTCHAR ograve
ENCODING 242
SWIDTH 611 0
DWIDTH 14 0
BBX 12 19 1 0
BITMAP
1800
0C00
0600
0300
0000
0000
1F80
3FC0
70E0
E060
C030
C030
C030
C030
C030
E060
70E0
3FC0
1F80
ENDCHAR
STARTCHAR oacute
ENCODING 243
SWIDTH 611 0
DWIDTH 14 0
BBX 12 19 1 0
BITMAP
01C0
0180
0300
0600
0000
0000
1F80
3FC0
70E0
E060
C030
C030
C030
C030
C030
E060
70E0
3FC0
1F80
ENDCHAR
STARTCHAR ocircumflex
ENCODING 244
SWIDTH 611 0
DWIDTH 14 0
BBX 12 19 1 0
BITMAP
0600
0F00
1900
1180
0000
0000
1F80
3FC0
70E0
E060
C030
C030
C030
C030
C030
E060
70E0
3FC0
1F80
ENDCHAR
STARTCHAR otilde
ENCODING 245
SWIDTH 611 0
DWIDTH 14 0
BBX 12 19 1 0
BITMAP
1C40
1740
2380
0000
0000
0000
1F80
3FC0
70E0
E060
C030
C030
C030
C030
C030
E060
70E0
3FC0
1F80
ENDCHAR
STARTCHAR odieresis
ENCODING 246
SWIDTH 611 0
DWIDTH 14 0
BBX 12 18 1 0
BITMAP
1980
1980
0000
0000
0000
1F80
3FC0
70E0
E060
C030
C030
C030
C030
C030
E060
70E0
3FC0
1F80
ENDCHAR
STARTCHAR divide
ENCODING 247
SWIDTH 837 0
DWIDTH 20 0
BBX 15 12 3 2
BITMAP
0380
0380
0380
0000
0000
FFFE
FFFE
0000
0000
0380
0380
0380
ENDCHAR
STARTCHAR oslash
ENCODING 248
SWIDTH 611 0
DWIDTH 14 0
BBX 12 15 1 -1
BITMAP
0010
1F90
3FF0
70E0
E0E0
C1B0
C330
C630
CC30
D830
7060
70E0
7FC0
9F80
8000
ENDCHAR
STARTCHAR ugrave
ENCODING 249
SWIDTH 633 0
DWIDTH 15 0
BBX 11 19 2 0
BITMAP
3000
1800
0C00
0600
0000
0000
C060
C060
C060
C060
C060
C060
C060
C060
C060
C0E0
E1E0
7FE0
3E60
ENDCHAR
STARTCHAR uacute
ENCODING 250
SWIDTH 633 0
DWIDTH 15 0
BBX 11 19 2 0
BITMAP
0380
0300
0600
0C00
0000
0000
C060
C060
C060
C060
C060
C060
C060
C060
C060
C0E0
E1E0
7FE0
3E60
ENDCHAR
STARTCHAR ucircumflex
ENCODING 251
SWIDTH 633 0
DWIDTH 15 0
BBX 11 19 2 0
BITMAP
0C00
1E00
3200
2100
0000
0000
C060
C060
C060
C060
C060
C060
C060
C060
C060
C0E0
E1E0
7FE0
3E60
ENDCHAR
STARTCHAR udieresis
ENCODING 252
SWIDTH 633 0
DWIDTH 15 0
BBX 11 18 2 0
BITMAP
3300
3300
0000
0000
0000
C060
C060
C060
C060
C060
C060
C060
C060
C060
C0E0
E1E0
7FE0
3E60
ENDCHAR
STARTCHAR yacute
ENCODING 253
SWIDTH 591 0
DWIDTH 15 0
BBX 13 24 1 -5
BITMAP
01C0
0380
0700
0600
0000
0000
C018
6030
6030
7070
3060
30E0
18C0
18C0
0D80
0D80
0F80
0700
0700
0600
0600
0C00
7C00
7800
ENDCHAR
STARTCHAR thorn
ENCODING 254
SWIDTH 634 0
DWIDTH 15 0
BBX 12 23 2 -5
BITMAP
C000
C000
C000
C000
C000
CF80
FFC0
F0E0
E060
C030
C030
C030
C030
C030
E060
F0E0
FFC0
CF80
C000
C000
C000
C000
C000
ENDCHAR
STARTCHAR ydieresis
ENCODING 255
SWIDTH 591 0
DWIDTH 15 0
BBX 13 23 1 -5
BITMAP
1980
1980
0000
0000
0000
C018
6030
6030
7070
3060
30E0
18C0
18C0
0D80
0D80
0F80
0700
0700
0600
0600
0C00
7C00
7800
ENDCHAR
STARTCHAR Cacute
ENCODING 262
SWIDTH 698 0
DWIDTH 17 0
BBX 14 22 1 0
BITMAP
00E0
00C0
0180
0000
07E0
1FF8
3C1C
7004
6000
E000
C000
C000
C000
C000
C000
C000
E000
6000
7004
3C1C
1FF8
07E0
ENDCHAR
STARTCHAR cacute
ENCODING 263
SWIDTH 549 0
DWIDTH 13 0
BBX 10 19 1 0
BITMAP
00C0
0180
0300
0600
0000
0000
0F80
3FC0
7040
6000
C000
C000
C000
C000
C000
6000
7040
3FC0
1F80
ENDCHAR
STARTCHAR Ccaron
ENCODING 268
SWIDTH 698 0
DWIDTH 17 0
BBX 14 22 1 0
BITMAP
0660
0340
01C0
0000
07E0
1FF8
3C1C
7004
6000
E000
C000
C000
C000
C000
C000
C000
E000
6000
7004
3C1C
1FF8
07E0
ENDCHAR
STARTCHAR ccaron
ENCODING 269
SWIDTH 549 0
DWIDTH 13 0
BBX 10 19 1 0
BITMAP
1880
0980
0F00
0600
0000
0000
0F80
3FC0
7040
6000
C000
C000
C000
C000
C000
6000
7040
3FC0
1F80
ENDCHAR
STARTCHAR dcroat
ENCODING 273
SWIDTH 634 0
DWIDTH 15 0
BBX 14 18 1 0
BITMAP
0030
0030
03FC
03FC
0030
1F30
3FF0
70F0
6070
C030
C030
C030
C030
C030
6070
70F0
3FF0
1F30
ENDCHAR
STARTCHAR Gbreve
ENCODING 286
SWIDTH 774 0
DWIDTH 19 0
BBX 15 21 1 0
BITMAP
0C20
07C0
0000
07E0
1FF8
381C
7004
6000
E000
C000
C000
C07E
C07E
C006
C006
E006
6006
7006
3C0E
1FFC
07F0
ENDCHAR
STARTCHAR gbreve
ENCODING 287
SWIDTH 634 0
DWIDTH 15 0
BBX 12 24 1 -5
BITMAP
10C0
1080
1F80
0F00
0000
0000
1F30
3FF0
70F0
E070
C030
C030
C030
C030
C030
E070
70F0
3FF0
1F30
0030
0070
20E0
3FC0
1F80
ENDCHAR
STARTCHAR Idotaccent
ENCODING 304
SWIDTH 294 0
DWIDTH 7 0
BBX 3 21 2 0
BITMAP
60
60
00
C0
C0
C0
C0
C0
C0
C0
C0
C0
C0
C0
C0
C0
C0
C0
C0
C0
C0
ENDCHAR
STARTCHAR dotlessi
ENCODING 305
SWIDTH 277 0
DWIDTH 7 0
BBX 2 13 2 0
BITMAP
C0
C0
C0
C0
C0
C0
C0
C0
C0
C0
C0
C0
C0
ENDCHAR
STARTCHAR Lslash
ENCODING 321
SWIDTH 562 0
DWIDTH 13 0
BBX 14 18 -1 0
BITMAP
1800
1800
1800
1800
1800
18C0
1B80
1F00
1C00
1800
7800
F800
1800
1800
1800
1800
1FFC
1FFC
ENDCHAR
STARTCHAR lslash
ENCODING 322
SWIDTH 284 0
DWIDTH 6 0
BBX 6 18 0 0
BITMAP
30
30
30
30
30
30
34
3C
30
70
F0
30
30
30
30
30
30
30
ENDCHAR
STARTCHAR OE
ENCODING 338
SWIDTH 1069 0
DWIDTH 26 0
BBX 23 18 1 0
BITMAP
03FFFE
0FFFFE
3C0C00
300C00
600C00
600C00
C00C00
C00C00
C00FFC
C00FFC
C00C00
C00C00
600C00
600C00
300C00
3C0C00
0FFFFE
03FFFE
ENDCHAR
STARTCHAR oe
ENCODING 339
SWIDTH 1022 0
DWIDTH 24 0
BBX 22 13 1 0
BITMAP
1F03E0
3FCFF0
70FC38
E0780C
C0300C
C03FFC
C03FFC
C03000
C03000
E07800
70FC08
3FCFF8
1F03F0
ENDCHAR
STARTCHAR Scedilla
ENCODING 350
SWIDTH 634 0
DWIDTH 15 0
BBX 12 23 2 -5
BITMAP
1F80
7FE0
7060
C000
C000
C000
C000
7000
7F00
1FC0
01E0
0070
0030
0030
0030
C0E0
FFE0
3F80
0200
0200
0700
1F00
1E00
ENDCHAR
STARTCHAR scedilla
ENCODING 351
SWIDTH 520 0
DWIDTH 12 0
BBX 10 18 1 -5
BITMAP
3F00
7F80
E080
C000
C000
FC00
3F80
07C0
00C0
00C0
81C0
FF80
7F00
0600
0600
0600
3E00
3C00
ENDCHAR
STARTCHAR Scaron
ENCODING 352
SWIDTH 634 0
DWIDTH 15 0
BBX 12 22 2 0
BITMAP
3100
1A00
0E00
0000
1F80
7FE0
7060
C000
C000
C000
C000
7000
7F00
1FC0
01E0
0070
0030
0030
0030
C0E0
FFE0
3F80
ENDCHAR
STARTCHAR scaron
ENCODING 353
SWIDTH 520 0
DWIDTH 12 0
BBX 10 19 1 0
BITMAP
2300
3200
1E00
0C00
0000
0000
3F00
7F80
E080
C000
C000
FC00
3F80
07C0
00C0
00C0
81C0
FF80
7F00
ENDCHAR
STARTCHAR Ydieresis
ENCODING 376
SWIDTH 610 0
DWIDTH 15 0
BBX 14 22 0 0
BITMAP
0CC0
0CC0
0000
0000
E01C
6018
3030
3870
1860
1CE0
0FC0
0780
0780
0300
0300
0300
0300
0300
0300
0300
0300
0300
ENDCHAR
STARTCHAR Zcaron
ENCODING 381
SWIDTH 685 0
DWIDTH 16 0
BBX 14 22 1 0
BITMAP
08C0
0D80
0700
0000
FFFC
FFFC
0018
0038
0070
0060
00C0
0180
0380
0700
0600
0C00
1800
3800
7000
6000
FFFC
FFFC
ENDCHAR
STARTCHAR zcaron
ENCODING 382
SWIDTH 524 0
DWIDTH 13 0
BBX 11 19 1 0
BITMAP
2300
3200
1E00
0C00
0000
0000
FFE0
FFE0
00C0
01C0
0380
0700
0E00
1C00
3800
7000
6000
FFE0
FFE0
ENDCHAR
STARTCHAR florin
ENCODING 402
SWIDTH 636 0
DWIDTH 15 0
BBX 15 23 0 -5
BITMAP
001C
007E
0062
00E0
00C0
00C0
00C0
0180
0FF8
0FF8
0180
0180
0300
0300
0300
0300
0700
0600
0600
0600
8C00
FC00
7800
ENDCHAR
STARTCHAR circumflex
ENCODING 710
SWIDTH 500 0
DWIDTH 12 0
BBX 7 4 2 15
BITMAP
38
28
6C
C6
ENDCHAR
STARTCHAR caron
ENCODING 711
SWIDTH 500 0
DWIDTH 12 0
BBX 7 4 2 15
BITMAP
C6
6C
28
38
ENDCHAR
STARTCHAR breve
ENCODING 728
SWIDTH 500 0
DWIDTH 12 0
BBX 7 4 2 15
BITMAP
82
C6
7C
38
ENDCHAR
STARTCHAR dotaccent
ENCODING 729
SWIDTH 500 0
DWIDTH 12 0
BBX 2 2 5 16
BITMAP
C0
C0
ENDCHAR
STARTCHAR ring
ENCODING 730
SWIDTH 500 0
DWIDTH 12 0
BBX 6 6 3 15
BITMAP
78
CC
84
84
CC
78
ENDCHAR
STARTCHAR ogonek
ENCODING 731
SWIDTH 500 0
DWIDTH 12 0
BBX 4 5 4 -5
BITMAP
40
C0
C0
F0
70
ENDCHAR
STARTCHAR tilde
ENCODING 732
SWIDTH 500 0
DWIDTH 12 0
BBX 8 3 2 16
BITMAP
71
99
8E
ENDCHAR
STARTCHAR hungarumlaut
ENCODING 733
SWIDTH 500 0
DWIDTH 12 0
BBX 8 4 3 15
BITMAP
33
66
44
CC
ENDCHAR
STARTCHAR Omega
ENCODING 937
SWIDTH 764 0
DWIDTH 18 0
BBX 16 18 1 0
BITMAP
07E0
1FF8
381C
700E
6006
E007
C003
C003
C003
C003
C003
E007
6006
700E
381C
1C38
FE7F
FE7F
ENDCHAR
STARTCHAR pi
ENCODING 960
SWIDTH 588 0
DWIDTH 14 0
BBX 14 13 0 0
BITMAP
3FFC
7FFC
DC60
D860
1860
1860
1860
38C0
30C0
30C0
30C0
70F0
6070
ENDCHAR
STARTCHAR endash
ENCODING 8211
SWIDTH 500 0
DWIDTH 12 0
BBX 12 2 0 5
BITMAP
FFF0
FFF0
ENDCHAR
STARTCHAR emdash
ENCODING 8212
SWIDTH 1000 0
DWIDTH 24 0
BBX 24 2 0 5
BITMAP
FFFFFF
FFFFFF
ENDCHAR
STARTCHAR quoteleft
ENCODING 8216
SWIDTH 317 0
DWIDTH 8 0
BBX 3 6 2 12
BITMAP
60
60
C0
C0
C0
C0
ENDCHAR
STARTCHAR quoteright
ENCODING 8217
SWIDTH 317 0
DWIDTH 8 0
BBX 3 6 2 12
BITMAP
60
60
60
60
C0
C0
ENDCHAR
STARTCHAR quotesinglbase
ENCODING 8218
SWIDTH 317 0
DWIDTH 8 0
BBX 3 6 2 -3
BITMAP
60
60
60
60
C0
C0
ENDCHAR
STARTCHAR quotedblleft
ENCODING 8220
SWIDTH 518 0
DWIDTH 12 0
BBX 7 6 2 12
BITMAP
66
66
CC
CC
CC
CC
ENDCHAR
STARTCHAR quotedblright
ENCODING 8221
SWIDTH 518 0
DWIDTH 12 0
BBX 7 6 2 12
BITMAP
66
66
66
66
CC
CC
ENDCHAR
STARTCHAR quotedblbase
ENCODING 8222
SWIDTH 518 0
DWIDTH 12 0
BBX 7 6 2 -3
BITMAP
66
66
66
66
CC
CC
ENDCHAR
STARTCHAR dagger
ENCODING 8224
SWIDTH 500 0
DWIDTH 12 0
BBX 10 20 1 -2
BITMAP
0C00
0C00
0C00
0C00
0C00
FFC0
FFC0
0C00
0C00
0C00
0C00
0C00
0C00
0C00
0C00
0C00
0C00
0C00
0C00
0C00
ENDCHAR
STARTCHAR daggerdbl
ENCODING 8225
SWIDTH 500 0
DWIDTH 12 0
BBX 10 20 1 -2
BITMAP
0C00
0C00
0C00
0C00
0C00
FFC0
FFC0
0C00
0C00
0C00
0C00
0C00
0C00
FFC0
FFC0
0C00
0C00
0C00
0C00
0C00
ENDCHAR
STARTCHAR bullet
ENCODING 8226
SWIDTH 589 0
DWIDTH 14 0
BBX 7 7 4 5
BITMAP
38
7C
FE
FE
FE
7C
38
ENDCHAR
STARTCHAR ellipsis
ENCODING 8230
SWIDTH 1000 0
DWIDTH 24 0
BBX 18 3 3 0
BITMAP
C0C0C0
C0C0C0
C0C0C0
ENDCHAR
STARTCHAR perthousand
ENCODING 8240
SWIDTH 1341 0
DWIDTH 32 0
BBX 29 18 1 0
BITMAP
3C030000
66070000
C3060000
C30C0000
C31C0000
C3180000
C3380000
C3300000
6663C1E0
3C666330
00CC3618
01CC3618
018C3618
038C3618
030C3618
060C3618
0E066330
0C03C1E0
ENDCHAR
STARTCHAR guilsinglleft
ENCODING 8249
SWIDTH 399 0
DWIDTH 10 0
BBX 6 11 2 1
BITMAP
04
0C
1C
38
70
E0
70
38
1C
0C
04
ENDCHAR
STARTCHAR guilsinglright
ENCODING 8250
SWIDTH 399 0
DWIDTH 10 0
BBX 6 11 2 1
BITMAP
80
C0
E0
70
38
1C
38
70
E0
C0
80
ENDCHAR
STARTCHAR Euro
ENCODING 8364
SWIDTH 636 0
DWIDTH 15 0
BBX 13 18 1 0
BITMAP
03E0
0FF0
0E18
1808
1800
3000
FFE0
FFC0
3000
3000
FF80
FF80
3000
1800
1808
0E18
0FF0
03E0
ENDCHAR
STARTCHAR trademark
ENCODING 8482
SWIDTH 1000 0
DWIDTH 24 0
BBX 15 7 4 11
BITMAP
F986
21CE
217A
2132
2132
2102
2102
ENDCHAR
STARTCHAR partialdiff
ENCODING 8706
SWIDTH 517 0
DWIDTH 12 0
BBX 10 16 1 0
BITMAP
1E00
3900
1080
00C0
00C0
00C0
00C0
3CC0
72C0
E1C0
C1C0
C180
C180
C300
6600
3C00
ENDCHAR
STARTCHAR Delta
ENCODING 8710
SWIDTH 668 0
DWIDTH 16 0
BBX 16 17 0 0
BITMAP
0380
03C0
03C0
07E0
0660
0E60
0C30
0C30
1C38
1818
1818
301C
300C
700E
6006
7FFE
FFFF
ENDCHAR
STARTCHAR product
ENCODING 8719
SWIDTH 756 0
DWIDTH 18 0
BBX 15 22 2 -4
BITMAP
FFFE
FFFE
C006
C006
C006
C006
C006
C006
C006
C006
C006
C006
C006
C006
C006
C006
C006
C006
C006
C006
C006
C006
ENDCHAR
STARTCHAR summation
ENCODING 8721
SWIDTH 673 0
DWIDTH 16 0
BBX 15 22 0 -5
BITMAP
FFFE
FFFE
7000
3800
1C00
0E00
0700
0780
03C0
01E0
00E0
01E0
01C0
0380
0700
0E00
1C00
3C00
7800
7000
FFFE
FFFE
ENDCHAR
STARTCHAR minus
ENCODING 8722
SWIDTH 837 0
DWIDTH 20 0
BBX 15 2 3 7
BITMAP
FFFE
FFFE
ENDCHAR
STARTCHAR fraction
ENCODING 8725
SWIDTH 166 0
DWIDTH 4 0
BBX 13 18 -4 0
BITMAP
0038
0030
0070
0060
00C0
01C0
0180
0380
0300
0600
0E00
0C00
1C00
1800
3000
7000
6000
E000
ENDCHAR
STARTCHAR periodcentered
ENCODING 8729
SWIDTH 317 0
DWIDTH 8 0
BBX 2 3 3 7
BITMAP
C0
C0
C0
ENDCHAR
STARTCHAR radical
ENCODING 8730
SWIDTH 637 0
DWIDTH 15 0
BBX 15 20 1 -1
BITMAP
0006
0008
0008
0018
0010
0010
0030
0020
7060
B040
3040
18C0
1880
1D80
0D80
0D00
0F00
0600
0600
0600
ENDCHAR
STARTCHAR infinity
ENCODING 8734
SWIDTH 833 0
DWIDTH 20 0
BBX 15 9 3 3
BITMAP
3878
7CFC
C6C6
8182
8302
8382
C6C6
7E7C
3838
ENDCHAR
STARTCHAR integral
ENCODING 8747
SWIDTH 520 0
DWIDTH 13 0
BBX 12 22 0 -4
BITMAP
00E0
0170
0370
0200
0200
0600
0600
0600
0600
0600
0600
0600
0600
0600
0600
0600
0600
0400
0400
EC00
E800
7000
ENDCHAR
STARTCHAR approxequal
ENCODING 8776
SWIDTH 837 0
DWIDTH 20 0
BBX 15 9 3 3
BITMAP
3E02
7F86
C3FC
80F8
0000
3E02
7F86
C3FC
00F8
ENDCHAR
STARTCHAR notequal
ENCODING 8800
SWIDTH 837 0
DWIDTH 20 0
BBX 15 15 3 0
BITMAP
0008
0018
0038
0070
FFFE
FFFE
0180
0380
0700
FFFE
FFFE
1C00
3800
3000
2000
ENDCHAR
STARTCHAR lessequal
ENCODING 8804
SWIDTH 837 0
DWIDTH 20 0
BBX 15 14 3 0
BITMAP
0006
003E
01FC
1FC0
FE00
F000
FE00
1FC0
01FC
003E
0006
0000
FFFE
FFFE
ENDCHAR
STARTCHAR greaterequal
ENCODING 8805
SWIDTH 837 0
DWIDTH 20 0
BBX 15 14 3 0
BITMAP
C000
F800
7F00
07F0
00FE
001E
00FE
07F0
7F00
F800
C000
0000
FFFE
FFFE
ENDCHAR
STARTCHAR lozenge
ENCODING 9674
SWIDTH 494 0
DWIDTH 12 0
BBX 12 23 0 -5
BITMAP
0600
0600
0F00
0900
1980
1080
30C0
2040
6060
4020
C030
8010
4030
4020
6060
2040
30C0
1080
1980
0900
0F00
0600
0600
ENDCHAR
STARTCHAR fi
ENCODING 64257
SWIDTH 629 0
DWIDTH 15 0
BBX 12 18 1 0
BITMAP
0F30
1F30
3030
3000
3000
FFF0
FFF0
3030
3030
3030
3030
3030
3030
3030
3030
3030
3030
3030
ENDCHAR
STARTCHAR fl
ENCODING 64258
SWIDTH 629 0
DWIDTH 15 0
BBX 12 18 1 0
BITMAP
0FF0
1FF0
3030
3030
3030
FF30
FF30
3030
3030
3030
3030
3030
3030
3030
3030
3030
3030
3030
ENDCHAR
STARTCHAR .notdef
ENCODING -1
SWIDTH 600 0
DWIDTH 14 0
BBX 12 21 1 -4
BITMAP
FFF0
8010
8010
8010
8010
8010
8010
8010
8010
8010
8010
8010
8010
8010
8010
8010
8010
8010
8010
8010
FFF0
ENDCHAR
STARTCHAR .null
ENCODING -1
SWIDTH 0 0
DWIDTH 0 0
BBX 1 1 0 0
BITMAP
00
ENDCHAR
STARTCHAR nonmarkingreturn
ENCODING -1
SWIDTH 317 0
DWIDTH 8 0
BBX 1 1 0 0
BITMAP
00
ENDCHAR
STARTCHAR c6459
ENCODING -1
SWIDTH 500 0
DWIDTH 12 0
BBX 6 2 3 16
BITMAP
CC
CC
ENDCHAR
STARTCHAR c6460
ENCODING -1
SWIDTH 500 0
DWIDTH 12 0
BBX 4 3 4 15
BITMAP
30
60
C0
ENDCHAR
STARTCHAR c6461
ENCODING -1
SWIDTH 500 0
DWIDTH 12 0
BBX 8 2 2 15
BITMAP
71
8E
ENDCHAR
STARTCHAR c6462
ENCODING -1
SWIDTH 500 0
DWIDTH 12 0
BBX 4 3 3 15
BITMAP
E0
60
30
ENDCHAR
STARTCHAR c6463
ENCODING -1
SWIDTH 500 0
DWIDTH 12 0
BBX 7 3 2 15
BITMAP
38
6C
C6
ENDCHAR
STARTCHAR c6466
ENCODING -1
SWIDTH 500 0
DWIDTH 12 0
BBX 7 3 2 15
BITMAP
C6
6C
38
ENDCHAR
STARTCHAR c6467
ENCODING -1
SWIDTH 400 0
DWIDTH 10 0
BBX 9 10 1 8
BITMAP
0600
0E00
1600
3600
2600
4600
C600
FF80
0600
0600
ENDCHAR
STARTCHAR c6468
ENCODING -1
SWIDTH 500 0
DWIDTH 12 0
BBX 7 2 2 15
BITMAP
82
7C
ENDCHAR
STARTCHAR c6469
ENCODING -1
SWIDTH 500 0
DWIDTH 12 0
BBX 2 2 5 15
BITMAP
C0
C0
ENDCHAR
ENDFONT
